<svg xmlns="http://www.w3.org/2000/svg" viewBox="0 0 64 64" role="img" aria-label="MarketFlow">
  <defs>
    <linearGradient id="marketflow-bg" x1="0" y1="0" x2="1" y2="1">
      <stop offset="0%" stop-color="#f6eddc" />
      <stop offset="100%" stop-color="#eadbb8" />
    </linearGradient>
  </defs>
  <rect width="64" height="64" rx="16" fill="url(#marketflow-bg)" />
  <path d="M14 24.5 18 15h28l4 9.5" fill="none" stroke="#1f4d3a" stroke-width="4" stroke-linecap="round" stroke-linejoin="round"/>
  <path d="M16 25h32v7c0 3.3-2.7 6-6 6-2.4 0-4.5-1.4-5.5-3.4-1 2-3.1 3.4-5.5 3.4s-4.5-1.4-5.5-3.4C24.5 36.6 22.4 38 20 38c-3.3 0-6-2.7-6-6v-7Z" fill="#2f6a4f"/>
  <path d="M20 38v11c0 1.7 1.3 3 3 3h18c1.7 0 3-1.3 3-3V38" fill="none" stroke="#1f4d3a" stroke-width="4" stroke-linecap="round" stroke-linejoin="round"/>
  <path d="M31 19c4.4 1.1 7 4.4 7 9-4.9.6-8.8-1.2-10.5-5.2 1.2-2.2 2-3.2 3.5-3.8Z" fill="#7cae6f"/>
  <path d="M29 29c.6-3.6 2.2-6.3 5.4-8.1" fill="none" stroke="#1f4d3a" stroke-width="2.5" stroke-linecap="round"/>
</svg>
